<svg width="1980" height="1766" xmlns="http://www.w3.org/2000/svg" xmlns:xlink="http://www.w3.org/1999/xlink" overflow="hidden"><defs><clipPath id="clip0"><rect x="3765" y="973" width="1980" height="1766"/></clipPath><clipPath id="clip1"><rect x="4539" y="973" width="1207" height="1766"/></clipPath><clipPath id="clip2"><rect x="4539" y="973" width="1207" height="1766"/></clipPath><clipPath id="clip3"><rect x="4539" y="973" width="1207" height="1766"/></clipPath><clipPath id="clip4"><rect x="4539" y="973" width="1207" height="1766"/></clipPath><clipPath id="clip5"><rect x="3765" y="1276" width="991" height="990"/></clipPath><clipPath id="clip6"><rect x="3765" y="1276" width="991" height="990"/></clipPath><clipPath id="clip7"><rect x="3765" y="1276" width="991" height="990"/></clipPath></defs><g clip-path="url(#clip0)" transform="translate(-3765 -973)"><g clip-path="url(#clip1)"><g clip-path="url(#clip2)"><g clip-path="url(#clip3)"><g clip-path="url(#clip4)"><path d="M7668.79 3115.82C7668.79 3074.86 7702 3041.65 7742.96 3041.65L8786.17 3041.65C8827.13 3041.65 8860.34 3074.86 8860.34 3115.82L8860.34 3127.45C8860.34 3168.42 8827.13 3201.62 8786.17 3201.62L7742.96 3201.62C7702 3201.62 7668.79 3168.42 7668.79 3127.45Z" stroke="#3352C7" stroke-width="13.7045" stroke-linejoin="round" stroke-miterlimit="10" fill="#2E4FC2" fill-rule="evenodd" transform="matrix(1 0 0 1.0002 -3122.07 -2062.55)"/><path d="M7668.79 4708.04C7668.79 4667.07 7702 4633.87 7742.96 4633.87L8786.17 4633.87C8827.13 4633.87 8860.34 4667.07 8860.34 4708.04L8860.34 4719.67C8860.34 4760.63 8827.13 4793.84 8786.17 4793.84L7742.96 4793.84C7702 4793.84 7668.79 4760.63 7668.79 4719.67Z" stroke="#3352C7" stroke-width="13.7045" stroke-linejoin="round" stroke-miterlimit="10" fill="#2E4FC2" fill-rule="evenodd" transform="matrix(1 0 0 1.0002 -3122.07 -2062.55)"/><path d="M7829.57 3196.39C7826.83 3402.78 7909.59 3690.78 8270.1 3934.89 8435.69 4064.32 8651.75 4229.66 8677.2 4652.56" stroke="#3352C7" stroke-width="89.0793" stroke-linejoin="round" stroke-miterlimit="10" fill="none" fill-rule="evenodd" transform="matrix(1 0 0 1.0002 -3122.07 -2062.55)"/><path d="M0.0647586 0C-2.67669 206.396 80.0805 494.389 440.582 738.498 606.182 867.923 822.242 1033.26 847.686 1456.17" stroke="#3352C7" stroke-width="89.0793" stroke-linejoin="round" stroke-miterlimit="10" fill="none" fill-rule="evenodd" transform="matrix(-1 0 0 1.0002 5564.1 1134.5)"/></g></g></g></g><g clip-path="url(#clip5)"><g clip-path="url(#clip6)"><g clip-path="url(#clip7)"><path d="M4646.72 2055.62 4517.81 1926.72C4500.28 1909.19 4476.56 1903 4453.88 1907.12L4408.5 1861.75C4448.72 1810.19 4472.44 1744.19 4472.44 1674.06 4472.44 1503.91 4333.22 1364.69 4163.06 1364.69 3992.91 1364.69 3853.69 1503.91 3853.69 1674.06 3853.69 1844.22 3992.91 1983.44 4163.06 1983.44 4233.19 1983.44 4298.16 1959.72 4350.75 1919.5L4396.12 1964.88C4392 1987.56 4398.19 2011.28 4415.72 2028.81L4544.62 2157.72C4559.06 2172.16 4577.62 2179.38 4596.19 2179.38 4614.75 2179.38 4633.31 2172.16 4647.75 2157.72 4674.56 2128.84 4674.56 2083.47 4646.72 2055.62ZM4162.03 1920.53C4025.91 1920.53 3914.53 1809.16 3914.53 1673.03 3914.53 1536.91 4025.91 1425.53 4162.03 1425.53 4298.16 1425.53 4409.53 1536.91 4409.53 1673.03 4409.53 1809.16 4298.16 1920.53 4162.03 1920.53Z" fill="#2E4FC2"/></g></g></g></g></svg>