<svg width="806" height="1181" xmlns="http://www.w3.org/2000/svg" xmlns:xlink="http://www.w3.org/1999/xlink" overflow="hidden"><defs><clipPath id="clip0"><rect x="5125" y="2030" width="806" height="1181"/></clipPath></defs><g clip-path="url(#clip0)" transform="translate(-5125 -2030)"><path d="M5129.5 2084.11C5129.5 2056.71 5151.71 2034.5 5179.11 2034.5L5876.89 2034.5C5904.29 2034.5 5926.5 2056.71 5926.5 2084.11L5926.5 2091.89C5926.5 2119.29 5904.29 2141.5 5876.89 2141.5L5179.11 2141.5C5151.71 2141.5 5129.5 2119.29 5129.5 2091.89Z" stroke="#3352C7" stroke-width="9.16667" stroke-linejoin="round" stroke-miterlimit="10" fill="#2E4FC2" fill-rule="evenodd"/><path d="M5129.5 3149.11C5129.5 3121.71 5151.71 3099.5 5179.11 3099.5L5876.89 3099.5C5904.29 3099.5 5926.5 3121.71 5926.5 3149.11L5926.5 3156.89C5926.5 3184.29 5904.29 3206.5 5876.89 3206.5L5179.11 3206.5C5151.71 3206.5 5129.5 3184.29 5129.5 3156.89Z" stroke="#3352C7" stroke-width="9.16667" stroke-linejoin="round" stroke-miterlimit="10" fill="#2E4FC2" fill-rule="evenodd"/><path d="M5237.54 2138.5C5235.71 2276.55 5291.06 2469.19 5532.2 2632.47 5642.96 2719.04 5787.48 2829.63 5804.5 3112.5" stroke="#3352C7" stroke-width="52.7083" stroke-linejoin="round" stroke-miterlimit="10" fill="none" fill-rule="evenodd"/><path d="M0.0433157 0C-1.79038 138.054 53.5642 330.687 294.696 493.966 405.463 580.536 549.981 691.128 567 974" stroke="#3352C7" stroke-width="52.7083" stroke-linejoin="round" stroke-miterlimit="10" fill="none" fill-rule="evenodd" transform="matrix(-1 0 0 1 5810.5 2138.5)"/></g></svg>